# xmcd CD database file
#
# Track frame offsets:
#	150
#	15082
#	28987
#	42463
#	57793
#	72472
#	88590
#	98637
#	116145
#	132627
#	147797
#	161468
#	175824
#	191591
#	203395
#	215324
#	228772
#	240060
#	254106
#	266807
#	281084
#	293451
#	307385
#	324233
#
# Disc length: 4540 seconds
#
# Revision: 0
# Processed by: cddbd v1.5.2PL0 Copyright (c) Steve Scherf et al.
# Submitted via: CDex 1.51
#
DISCID=5811ba18
DTITLE=Lillian Askeland - 22 Beste and 2
DYEAR=2006
DGENRE=Country
TTITLE0=På topp
TTITLE1=Kjærlighet og sympati
TTITLE2=Jimmy Brown
TTITLE3=Edith Gassion
TTITLE4=Frank
TTITLE5=Du trengte meg
TTITLE6=Jambalaya
TTITLE7=Min barndoms grønne dal
TTITLE8=Jeg har aldri vært hos meg
TTITLE9=Nederlagsmorgen
TTITLE10=Arven
TTITLE11=En deilig dag
TTITLE12=Gi meg en kjær gammel sang
TTITLE13=Mamma, din dag er i dag
TTITLE14=Vårt beste år
TTITLE15=Kvinnehud
TTITLE16=Himmelens porter
TTITLE17=Kjærleik og farvel
TTITLE18=s-k-i-l-s-m-i-s-s-e
TTITLE19=Mitt barndomsparadis
TTITLE20=Us of A
TTITLE21=Spar den siste dansen til meg
TTITLE22=Jeg vil tro
TTITLE23=Mi eiga hamn
EXTD=YEAR: 2006
EXTT0=
EXTT1=
EXTT2=
EXTT3=
EXTT4=
EXTT5=
EXTT6=
EXTT7=
EXTT8=
EXTT9=
EXTT10=
EXTT11=
EXTT12=
EXTT13=
EXTT14=
EXTT15=
EXTT16=
EXTT17=
EXTT18=
EXTT19=
EXTT20=
EXTT21=
EXTT22=
EXTT23=
PLAYORDER=
